<?xml version="1.0" encoding="UTF-8" standalone="no"?>
<!DOCTYPE svg PUBLIC "-//W3C//DTD SVG 1.1//EN" "http://www.w3.org/Graphics/SVG/1.1/DTD/svg11.dtd">
<svg width="100%" height="100%" viewBox="0 0 666 396" version="1.1" xmlns="http://www.w3.org/2000/svg" xmlns:xlink="http://www.w3.org/1999/xlink" xml:space="preserve" xmlns:serif="http://www.serif.com/" style="fill-rule:evenodd;clip-rule:evenodd;stroke-linecap:round;stroke-miterlimit:1;">
    <g transform="matrix(1,0,0,1,-225.381,0)">
        <g transform="matrix(1,0,0,1.19568,-157.399,-371.175)">
            <rect x="382.781" y="310.431" width="665.062" height="331.045" style="fill:white;"/>
        </g>
        <g transform="matrix(1,0,0,1,224.37,1.23852)">
            <g transform="matrix(0.467062,0,0,0.467062,-178.313,68.9919)">
                <path d="M757.889,102.489C757.889,87.768 745.938,75.817 731.217,75.817L517.843,75.817C503.122,75.817 491.171,87.768 491.171,102.489L491.171,582.383C491.171,597.104 503.122,609.055 517.843,609.055L731.217,609.055C745.938,609.055 757.889,597.104 757.889,582.383L757.889,102.489Z" style="fill:white;stroke:rgb(127,109,242);stroke-width:8.56px;"/>
            </g>
            <g transform="matrix(1.23053,0,0,1,-26.1098,0)">
                <rect x="51.094" y="194.508" width="124.574" height="100.365" style="fill:white;"/>
            </g>
            <g transform="matrix(1.23053,0,0,1,-26.1098,0)">
                <rect x="51.094" y="194.508" width="124.574" height="100.365" style="fill:rgb(127,109,242);fill-opacity:0.2;"/>
            </g>
            <g transform="matrix(0.446401,0,0,0.467062,-167.036,80.7322)">
                <path d="M799.931,265.087C799.931,253.228 789.856,243.599 777.448,243.599L478.021,243.599C465.612,243.599 455.538,253.228 455.538,265.087L455.538,436.996C455.538,448.855 465.612,458.484 478.021,458.484L777.448,458.484C789.856,458.484 799.931,448.855 799.931,436.996L799.931,265.087Z" style="fill:none;stroke:rgb(127,109,242);stroke-width:17.51px;stroke-linejoin:round;stroke-miterlimit:1.5;"/>
            </g>
            <g transform="matrix(0.467062,0,0,0.467062,-177.292,75.6226)">
                <path d="M735.854,109.488C735.854,106.41 733.355,103.911 730.277,103.911L514.41,103.911C511.332,103.911 508.833,106.41 508.833,109.488L508.833,120.643C508.833,123.721 511.332,126.22 514.41,126.22L730.277,126.22C733.355,126.22 735.854,123.721 735.854,120.643L735.854,109.488Z" style="fill:rgb(127,109,242);fill-opacity:0.38;"/>
            </g>
            <g transform="matrix(0.332244,0,0,0.467062,-86.0936,92.7402)">
                <path d="M735.854,109.488C735.854,106.41 732.341,103.911 728.014,103.911L516.673,103.911C512.346,103.911 508.833,106.41 508.833,109.488L508.833,120.643C508.833,123.721 512.346,126.22 516.673,126.22L728.014,126.22C732.341,126.22 735.854,123.721 735.854,120.643L735.854,109.488Z" style="fill:rgb(127,109,242);fill-opacity:0.38;"/>
            </g>
            <g transform="matrix(0.367515,0,0,0.467062,-104.041,109.886)">
                <path d="M735.854,109.488C735.854,106.41 732.678,103.911 728.766,103.911L515.921,103.911C512.009,103.911 508.833,106.41 508.833,109.488L508.833,120.643C508.833,123.721 512.009,126.22 515.921,126.22L728.766,126.22C732.678,126.22 735.854,123.721 735.854,120.643L735.854,109.488Z" style="fill:rgb(127,109,242);fill-opacity:0.38;"/>
            </g>
            <g transform="matrix(0.191073,0,0,0.467062,-36.8603,126.426)">
                <path d="M735.854,109.488C735.854,106.41 729.746,103.911 722.221,103.911L522.466,103.911C514.941,103.911 508.833,106.41 508.833,109.488L508.833,120.643C508.833,123.721 514.941,126.22 522.466,126.22L722.221,126.22C729.746,126.22 735.854,123.721 735.854,120.643L735.854,109.488Z" style="fill:rgb(127,109,242);fill-opacity:0.38;"/>
            </g>
            <g transform="matrix(0.467062,0,0,0.467062,-177.292,164.62)">
                <path d="M735.854,109.488C735.854,106.41 733.355,103.911 730.277,103.911L514.41,103.911C511.332,103.911 508.833,106.41 508.833,109.488L508.833,120.643C508.833,123.721 511.332,126.22 514.41,126.22L730.277,126.22C733.355,126.22 735.854,123.721 735.854,120.643L735.854,109.488Z" style="fill:rgb(127,109,242);fill-opacity:0.38;"/>
            </g>
            <g transform="matrix(0.266254,0,0,0.467062,-52.5158,181.738)">
                <path d="M735.854,109.488C735.854,106.41 731.47,103.911 726.071,103.911L518.616,103.911C513.216,103.911 508.833,106.41 508.833,109.488L508.833,120.643C508.833,123.721 513.216,126.22 518.616,126.22L726.071,126.22C731.47,126.22 735.854,123.721 735.854,120.643L735.854,109.488Z" style="fill:rgb(127,109,242);fill-opacity:0.38;"/>
            </g>
            <g transform="matrix(0.325092,0,0,0.467062,-82.4543,198.884)">
                <path d="M735.854,109.488C735.854,106.41 732.264,103.911 727.841,103.911L516.846,103.911C512.423,103.911 508.833,106.41 508.833,109.488L508.833,120.643C508.833,123.721 512.423,126.22 516.846,126.22L727.841,126.22C732.264,126.22 735.854,123.721 735.854,120.643L735.854,109.488Z" style="fill:rgb(127,109,242);fill-opacity:0.38;"/>
            </g>
            <g transform="matrix(0.191073,0,0,0.467062,-36.8603,215.424)">
                <path d="M735.854,109.488C735.854,106.41 729.746,103.911 722.221,103.911L522.466,103.911C514.941,103.911 508.833,106.41 508.833,109.488L508.833,120.643C508.833,123.721 514.941,126.22 522.466,126.22L722.221,126.22C729.746,126.22 735.854,123.721 735.854,120.643L735.854,109.488Z" style="fill:rgb(127,109,242);fill-opacity:0.38;"/>
            </g>
            <g transform="matrix(0.424639,0,0,0.467062,-155.706,256.792)">
                <path d="M735.854,109.488C735.854,106.41 733.106,103.911 729.72,103.911L514.967,103.911C511.581,103.911 508.833,106.41 508.833,109.488L508.833,120.643C508.833,123.721 511.581,126.22 514.967,126.22L729.72,126.22C733.106,126.22 735.854,123.721 735.854,120.643L735.854,109.488Z" style="fill:rgb(127,109,242);fill-opacity:0.38;"/>
            </g>
            <g transform="matrix(0.0915266,0,0,0.467062,36.3914,273.332)">
                <path d="M735.854,109.488C735.854,106.41 723.101,103.911 707.393,103.911L537.294,103.911C521.586,103.911 508.833,106.41 508.833,109.488L508.833,120.643C508.833,123.721 521.586,126.22 537.294,126.22L707.393,126.22C723.101,126.22 735.854,123.721 735.854,120.643L735.854,109.488Z" style="fill:rgb(127,109,242);fill-opacity:0.38;"/>
            </g>
            <g transform="matrix(0.581407,0,0,0.581407,-233.598,61.9201)">
                <text x="511.768px" y="306.557px" style="font-family:'AppleColorEmoji', 'Apple Color Emoji';font-size:24px;">👉</text>
            </g>
            <g transform="matrix(0.581407,0,0,0.581407,-233.598,78.9082)">
                <text x="511.768px" y="306.557px" style="font-family:'AppleColorEmoji', 'Apple Color Emoji';font-size:24px;">👉</text>
            </g>
            <g transform="matrix(0.581407,0,0,0.581407,-233.598,-27.0932)">
                <text x="511.768px" y="306.557px" style="font-family:'AppleColorEmoji', 'Apple Color Emoji';font-size:24px;">👉</text>
            </g>
            <g transform="matrix(0.581407,0,0,0.581407,-233.598,-10.105)">
                <text x="511.768px" y="306.557px" style="font-family:'AppleColorEmoji', 'Apple Color Emoji';font-size:24px;">👉</text>
            </g>
            <g transform="matrix(0.581407,0,0,0.581407,-233.598,153.378)">
                <text x="511.768px" y="306.557px" style="font-family:'AppleColorEmoji', 'Apple Color Emoji';font-size:24px;">👉</text>
            </g>
        </g>
        <g transform="matrix(1,0,0,1,667.618,1.27786)">
            <g transform="matrix(0.467062,0,0,0.467062,-178.313,68.9919)">
                <path d="M757.889,102.489C757.889,87.768 745.938,75.817 731.217,75.817L517.843,75.817C503.122,75.817 491.171,87.768 491.171,102.489L491.171,582.383C491.171,597.104 503.122,609.055 517.843,609.055L731.217,609.055C745.938,609.055 757.889,597.104 757.889,582.383L757.889,102.489Z" style="fill:white;stroke:rgb(127,109,242);stroke-width:8.56px;"/>
            </g>
            <g transform="matrix(1.23053,0,0,1,-26.1098,0)">
                <rect x="51.094" y="194.508" width="124.574" height="100.365" style="fill:white;"/>
            </g>
            <g transform="matrix(1.23053,0,0,1,-26.1098,0)">
                <rect x="51.094" y="194.508" width="124.574" height="100.365" style="fill:rgb(127,109,242);fill-opacity:0.2;"/>
            </g>
            <g transform="matrix(0.446401,0,0,0.467062,-167.036,80.7322)">
                <path d="M799.931,265.087C799.931,253.228 789.856,243.599 777.448,243.599L478.021,243.599C465.612,243.599 455.538,253.228 455.538,265.087L455.538,436.996C455.538,448.855 465.612,458.484 478.021,458.484L777.448,458.484C789.856,458.484 799.931,448.855 799.931,436.996L799.931,265.087Z" style="fill:none;stroke:rgb(127,109,242);stroke-width:17.51px;stroke-linejoin:round;stroke-miterlimit:1.5;"/>
            </g>
            <g transform="matrix(0.467062,0,0,0.467062,-177.292,75.6226)">
                <path d="M735.854,109.488C735.854,106.41 733.355,103.911 730.277,103.911L514.41,103.911C511.332,103.911 508.833,106.41 508.833,109.488L508.833,120.643C508.833,123.721 511.332,126.22 514.41,126.22L730.277,126.22C733.355,126.22 735.854,123.721 735.854,120.643L735.854,109.488Z" style="fill:rgb(127,109,242);fill-opacity:0.38;"/>
            </g>
            <g transform="matrix(0.332244,0,0,0.467062,-86.0936,92.7402)">
                <path d="M735.854,109.488C735.854,106.41 732.341,103.911 728.014,103.911L516.673,103.911C512.346,103.911 508.833,106.41 508.833,109.488L508.833,120.643C508.833,123.721 512.346,126.22 516.673,126.22L728.014,126.22C732.341,126.22 735.854,123.721 735.854,120.643L735.854,109.488Z" style="fill:rgb(127,109,242);fill-opacity:0.38;"/>
            </g>
            <g transform="matrix(0.367515,0,0,0.467062,-104.041,109.886)">
                <path d="M735.854,109.488C735.854,106.41 732.678,103.911 728.766,103.911L515.921,103.911C512.009,103.911 508.833,106.41 508.833,109.488L508.833,120.643C508.833,123.721 512.009,126.22 515.921,126.22L728.766,126.22C732.678,126.22 735.854,123.721 735.854,120.643L735.854,109.488Z" style="fill:rgb(127,109,242);fill-opacity:0.38;"/>
            </g>
            <g transform="matrix(0.191073,0,0,0.467062,-36.8603,126.426)">
                <path d="M735.854,109.488C735.854,106.41 729.746,103.911 722.221,103.911L522.466,103.911C514.941,103.911 508.833,106.41 508.833,109.488L508.833,120.643C508.833,123.721 514.941,126.22 522.466,126.22L722.221,126.22C729.746,126.22 735.854,123.721 735.854,120.643L735.854,109.488Z" style="fill:rgb(127,109,242);fill-opacity:0.38;"/>
            </g>
            <g transform="matrix(0.467062,0,0,0.467062,-177.292,164.62)">
                <path d="M735.854,109.488C735.854,106.41 733.355,103.911 730.277,103.911L514.41,103.911C511.332,103.911 508.833,106.41 508.833,109.488L508.833,120.643C508.833,123.721 511.332,126.22 514.41,126.22L730.277,126.22C733.355,126.22 735.854,123.721 735.854,120.643L735.854,109.488Z" style="fill:rgb(127,109,242);fill-opacity:0.38;"/>
            </g>
            <g transform="matrix(0.266254,0,0,0.467062,-52.5158,181.738)">
                <path d="M735.854,109.488C735.854,106.41 731.47,103.911 726.071,103.911L518.616,103.911C513.216,103.911 508.833,106.41 508.833,109.488L508.833,120.643C508.833,123.721 513.216,126.22 518.616,126.22L726.071,126.22C731.47,126.22 735.854,123.721 735.854,120.643L735.854,109.488Z" style="fill:rgb(127,109,242);fill-opacity:0.38;"/>
            </g>
            <g transform="matrix(0.325092,0,0,0.467062,-82.4543,198.884)">
                <path d="M735.854,109.488C735.854,106.41 732.264,103.911 727.841,103.911L516.846,103.911C512.423,103.911 508.833,106.41 508.833,109.488L508.833,120.643C508.833,123.721 512.423,126.22 516.846,126.22L727.841,126.22C732.264,126.22 735.854,123.721 735.854,120.643L735.854,109.488Z" style="fill:rgb(127,109,242);fill-opacity:0.38;"/>
            </g>
            <g transform="matrix(0.191073,0,0,0.467062,-36.8603,215.424)">
                <path d="M735.854,109.488C735.854,106.41 729.746,103.911 722.221,103.911L522.466,103.911C514.941,103.911 508.833,106.41 508.833,109.488L508.833,120.643C508.833,123.721 514.941,126.22 522.466,126.22L722.221,126.22C729.746,126.22 735.854,123.721 735.854,120.643L735.854,109.488Z" style="fill:rgb(127,109,242);fill-opacity:0.38;"/>
            </g>
            <g transform="matrix(0.424639,0,0,0.467062,-155.706,256.792)">
                <path d="M735.854,109.488C735.854,106.41 733.106,103.911 729.72,103.911L514.967,103.911C511.581,103.911 508.833,106.41 508.833,109.488L508.833,120.643C508.833,123.721 511.581,126.22 514.967,126.22L729.72,126.22C733.106,126.22 735.854,123.721 735.854,120.643L735.854,109.488Z" style="fill:rgb(127,109,242);fill-opacity:0.38;"/>
            </g>
            <g transform="matrix(0.0915266,0,0,0.467062,36.3914,273.332)">
                <path d="M735.854,109.488C735.854,106.41 723.101,103.911 707.393,103.911L537.294,103.911C521.586,103.911 508.833,106.41 508.833,109.488L508.833,120.643C508.833,123.721 521.586,126.22 537.294,126.22L707.393,126.22C723.101,126.22 735.854,123.721 735.854,120.643L735.854,109.488Z" style="fill:rgb(127,109,242);fill-opacity:0.38;"/>
            </g>
            <g transform="matrix(0.581407,0,0,0.581407,-233.598,61.9201)">
                <text x="511.768px" y="306.557px" style="font-family:'AppleColorEmoji', 'Apple Color Emoji';font-size:24px;">👉</text>
            </g>
            <g transform="matrix(0.581407,0,0,0.581407,-233.598,78.9082)">
                <text x="511.768px" y="306.557px" style="font-family:'AppleColorEmoji', 'Apple Color Emoji';font-size:24px;">👉</text>
            </g>
        </g>
        <g transform="matrix(1,0,0,1,7.41826,71.9067)">
            <rect x="726.766" y="73.493" width="9.398" height="4.722" style="fill:rgb(127,109,242);fill-opacity:0.38;"/>
        </g>
        <g transform="matrix(1,0,0,1,7.41826,89.053)">
            <rect x="726.766" y="73.493" width="9.398" height="4.722" style="fill:rgb(127,109,242);fill-opacity:0.38;"/>
        </g>
        <g transform="matrix(1,0,0,1,7.41826,252.498)">
            <rect x="726.766" y="73.493" width="9.398" height="4.722" style="fill:rgb(127,109,242);fill-opacity:0.38;"/>
        </g>
        <g transform="matrix(0.965926,0.258819,-0.258819,0.965926,-238.676,-445.678)">
            <circle cx="809.848" cy="499.006" r="6.275" style="fill:rgb(51,51,51);stroke:rgb(51,51,51);stroke-width:8px;stroke-linejoin:round;stroke-miterlimit:1.5;"/>
        </g>
        <g transform="matrix(0.965926,0.258819,-0.258819,0.965926,-233.687,-437.845)">
            <path d="M803.001,492.731L869.433,449.843" style="fill:none;stroke:rgb(51,51,51);stroke-width:4px;stroke-linejoin:round;stroke-miterlimit:1.5;"/>
        </g>
        <g transform="matrix(1,0,0,1,-379.252,-221.693)">
            <path d="M887.903,432.629L884.434,432.629L890.579,450.083L894.482,450.083L900.636,432.629L897.158,432.629L892.624,446.367L892.445,446.367L887.903,432.629Z" style="fill-rule:nonzero;"/>
            <path d="M902.8,450.083L905.886,450.083L905.886,436.992L902.8,436.992L902.8,450.083ZM904.352,435.134C905.332,435.134 906.133,434.384 906.133,433.464C906.133,432.535 905.332,431.785 904.352,431.785C903.363,431.785 902.562,432.535 902.562,433.464C902.562,434.384 903.363,435.134 904.352,435.134Z" style="fill-rule:nonzero;"/>
            <path d="M914.852,450.339C917.903,450.339 919.999,448.847 920.545,446.572L917.664,446.248C917.246,447.356 916.224,447.936 914.894,447.936C912.9,447.936 911.579,446.623 911.553,444.382L920.673,444.382L920.673,443.436C920.673,438.842 917.911,436.822 914.69,436.822C910.94,436.822 908.494,439.575 908.494,443.615C908.494,447.722 910.906,450.339 914.852,450.339ZM911.562,442.302C911.656,440.632 912.891,439.225 914.732,439.225C916.505,439.225 917.698,440.521 917.715,442.302L911.562,442.302Z" style="fill-rule:nonzero;"/>
            <path d="M925.914,450.083L929.136,450.083L931.59,441.237L931.769,441.237L934.224,450.083L937.437,450.083L941.144,436.992L937.991,436.992L935.724,446.146L935.596,446.146L933.244,436.992L930.133,436.992L927.781,446.197L927.661,446.197L925.36,436.992L922.215,436.992L925.914,450.083Z" style="fill-rule:nonzero;"/>
            <path d="M943.309,454.992L946.394,454.992L946.394,448.021L946.522,448.021C947.008,448.975 948.022,450.313 950.272,450.313C953.357,450.313 955.667,447.867 955.667,443.555C955.667,439.191 953.289,436.822 950.264,436.822C947.954,436.822 946.991,438.211 946.522,439.157L946.343,439.157L946.343,436.992L943.309,436.992L943.309,454.992ZM946.335,443.538C946.335,440.998 947.425,439.353 949.411,439.353C951.465,439.353 952.522,441.1 952.522,443.538C952.522,445.992 951.448,447.782 949.411,447.782C947.443,447.782 946.335,446.078 946.335,443.538Z" style="fill-rule:nonzero;"/>
            <path d="M964.011,450.339C967.846,450.339 970.283,447.637 970.283,443.589C970.283,439.532 967.846,436.822 964.011,436.822C960.175,436.822 957.738,439.532 957.738,443.589C957.738,447.637 960.175,450.339 964.011,450.339ZM964.028,447.867C961.906,447.867 960.866,445.975 960.866,443.58C960.866,441.186 961.906,439.268 964.028,439.268C966.116,439.268 967.156,441.186 967.156,443.58C967.156,445.975 966.116,447.867 964.028,447.867Z" style="fill-rule:nonzero;"/>
            <path d="M972.891,450.083L975.977,450.083L975.977,442.387C975.977,440.725 977.229,439.549 978.925,439.549C979.445,439.549 980.093,439.643 980.357,439.728L980.357,436.89C980.076,436.839 979.59,436.805 979.249,436.805C977.749,436.805 976.496,437.657 976.019,439.174L975.883,439.174L975.883,436.992L972.891,436.992L972.891,450.083Z" style="fill-rule:nonzero;"/>
            <path d="M989.656,436.992L987.073,436.992L987.073,433.856L983.988,433.856L983.988,436.992L982.13,436.992L982.13,439.379L983.988,439.379L983.988,446.657C983.971,449.12 985.761,450.33 988.079,450.262C988.957,450.237 989.562,450.066 989.894,449.955L989.374,447.544C989.204,447.586 988.854,447.663 988.471,447.663C987.695,447.663 987.073,447.39 987.073,446.146L987.073,439.379L989.656,439.379L989.656,436.992Z" style="fill-rule:nonzero;"/>
        </g>
        <g transform="matrix(1,0,0,1,-610.288,-379.331)">
            <path d="M895.053,437.427L898.096,437.427C898.036,434.478 895.522,432.39 891.806,432.39C888.141,432.39 885.389,434.453 885.397,437.538C885.397,440.044 887.178,441.484 890.05,442.225L892.036,442.737C893.92,443.214 895.164,443.802 895.173,445.157C895.164,446.649 893.749,447.646 891.687,447.646C889.71,447.646 888.175,446.759 888.048,444.927L884.937,444.927C885.065,448.396 887.647,450.347 891.712,450.347C895.897,450.347 898.326,448.259 898.335,445.183C898.326,442.157 895.829,440.776 893.204,440.154L891.568,439.745C890.136,439.404 888.585,438.799 888.602,437.342C888.61,436.029 889.786,435.066 891.764,435.066C893.647,435.066 894.891,435.944 895.053,437.427Z" style="fill-rule:nonzero;"/>
            <path d="M907.548,436.992L904.965,436.992L904.965,433.856L901.88,433.856L901.88,436.992L900.022,436.992L900.022,439.379L901.88,439.379L901.88,446.657C901.863,449.12 903.653,450.33 905.971,450.262C906.849,450.237 907.454,450.066 907.786,449.955L907.266,447.544C907.096,447.586 906.746,447.663 906.363,447.663C905.587,447.663 904.965,447.39 904.965,446.146L904.965,439.379L907.548,439.379L907.548,436.992Z" style="fill-rule:nonzero;"/>
            <path d="M913.897,450.347C915.951,450.347 917.178,449.384 917.741,448.285L917.843,448.285L917.843,450.083L920.809,450.083L920.809,441.322C920.809,437.862 917.988,436.822 915.491,436.822C912.738,436.822 910.624,438.049 909.943,440.436L912.823,440.845C913.13,439.95 913.999,439.183 915.508,439.183C916.94,439.183 917.724,439.916 917.724,441.203L917.724,441.254C917.724,442.14 916.795,442.183 914.485,442.43C911.945,442.703 909.516,443.461 909.516,446.41C909.516,448.984 911.4,450.347 913.897,450.347ZM914.698,448.08C913.411,448.08 912.491,447.492 912.491,446.359C912.491,445.174 913.522,444.68 914.903,444.484C915.712,444.373 917.332,444.169 917.732,443.845L917.732,445.387C917.732,446.845 916.556,448.08 914.698,448.08Z" style="fill-rule:nonzero;"/>
            <path d="M930.457,436.992L927.874,436.992L927.874,433.856L924.789,433.856L924.789,436.992L922.931,436.992L922.931,439.379L924.789,439.379L924.789,446.657C924.772,449.12 926.562,450.33 928.88,450.262C929.758,450.237 930.363,450.066 930.695,449.955L930.175,447.544C930.005,447.586 929.656,447.663 929.272,447.663C928.496,447.663 927.874,447.39 927.874,446.146L927.874,439.379L930.457,439.379L930.457,436.992Z" style="fill-rule:nonzero;"/>
            <path d="M938.698,450.339C941.749,450.339 943.846,448.847 944.391,446.572L941.511,446.248C941.093,447.356 940.07,447.936 938.741,447.936C936.746,447.936 935.425,446.623 935.4,444.382L944.519,444.382L944.519,443.436C944.519,438.842 941.758,436.822 938.536,436.822C934.786,436.822 932.34,439.575 932.34,443.615C932.34,447.722 934.752,450.339 938.698,450.339ZM935.408,442.302C935.502,440.632 936.738,439.225 938.579,439.225C940.352,439.225 941.545,440.521 941.562,442.302L935.408,442.302Z" style="fill-rule:nonzero;"/>
            <path d="M959.715,436.992L956.996,436.992L956.996,435.961C956.996,434.938 957.423,434.367 958.573,434.367C959.059,434.367 959.468,434.478 959.724,434.555L960.346,432.169C959.945,432.032 959.068,431.811 958.002,431.811C955.727,431.811 953.911,433.115 953.911,435.757L953.911,436.992L951.977,436.992L951.977,439.379L953.911,439.379L953.911,450.083L956.996,450.083L956.996,439.379L959.715,439.379L959.715,436.992Z" style="fill-rule:nonzero;"/>
            <path d="M962.136,450.083L965.221,450.083L965.221,436.992L962.136,436.992L962.136,450.083ZM963.687,435.134C964.667,435.134 965.468,434.384 965.468,433.464C965.468,432.535 964.667,431.785 963.687,431.785C962.698,431.785 961.897,432.535 961.897,433.464C961.897,434.384 962.698,435.134 963.687,435.134Z" style="fill-rule:nonzero;"/>
            <path d="M974.187,450.339C977.238,450.339 979.335,448.847 979.88,446.572L976.999,446.248C976.582,447.356 975.559,447.936 974.229,447.936C972.235,447.936 970.914,446.623 970.889,444.382L980.008,444.382L980.008,443.436C980.008,438.842 977.246,436.822 974.025,436.822C970.275,436.822 967.829,439.575 967.829,443.615C967.829,447.722 970.241,450.339 974.187,450.339ZM970.897,442.302C970.991,440.632 972.227,439.225 974.068,439.225C975.84,439.225 977.033,440.521 977.05,442.302L970.897,442.302Z" style="fill-rule:nonzero;"/>
            <rect x="982.616" y="432.629" width="3.085" height="17.455" style="fill-rule:nonzero;"/>
            <path d="M993.729,450.313C995.979,450.313 996.994,448.975 997.479,448.021L997.667,448.021L997.667,450.083L1000.7,450.083L1000.7,432.629L997.607,432.629L997.607,439.157L997.479,439.157C997.011,438.211 996.048,436.822 993.738,436.822C990.712,436.822 988.335,439.191 988.335,443.555C988.335,447.867 990.644,450.313 993.729,450.313ZM994.59,447.782C992.553,447.782 991.479,445.992 991.479,443.538C991.479,441.1 992.536,439.353 994.59,439.353C996.576,439.353 997.667,440.998 997.667,443.538C997.667,446.078 996.559,447.782 994.59,447.782Z" style="fill-rule:nonzero;"/>
        </g>
        <g transform="matrix(1,0,0,1,-171.367,-379.331)">
            <path d="M887.903,432.629L884.434,432.629L890.579,450.083L894.482,450.083L900.636,432.629L897.158,432.629L892.624,446.367L892.445,446.367L887.903,432.629Z" style="fill-rule:nonzero;"/>
            <path d="M902.8,450.083L905.886,450.083L905.886,436.992L902.8,436.992L902.8,450.083ZM904.352,435.134C905.332,435.134 906.133,434.384 906.133,433.464C906.133,432.535 905.332,431.785 904.352,431.785C903.363,431.785 902.562,432.535 902.562,433.464C902.562,434.384 903.363,435.134 904.352,435.134Z" style="fill-rule:nonzero;"/>
            <path d="M914.852,450.339C917.903,450.339 919.999,448.847 920.545,446.572L917.664,446.248C917.246,447.356 916.224,447.936 914.894,447.936C912.9,447.936 911.579,446.623 911.553,444.382L920.673,444.382L920.673,443.436C920.673,438.842 917.911,436.822 914.69,436.822C910.94,436.822 908.494,439.575 908.494,443.615C908.494,447.722 910.906,450.339 914.852,450.339ZM911.562,442.302C911.656,440.632 912.891,439.225 914.732,439.225C916.505,439.225 917.698,440.521 917.715,442.302L911.562,442.302Z" style="fill-rule:nonzero;"/>
            <path d="M925.914,450.083L929.136,450.083L931.59,441.237L931.769,441.237L934.224,450.083L937.437,450.083L941.144,436.992L937.991,436.992L935.724,446.146L935.596,446.146L933.244,436.992L930.133,436.992L927.781,446.197L927.661,446.197L925.36,436.992L922.215,436.992L925.914,450.083Z" style="fill-rule:nonzero;"/>
            <path d="M949.266,454.992L952.352,454.992L952.352,448.021L952.479,448.021C952.965,448.975 953.979,450.313 956.229,450.313C959.315,450.313 961.624,447.867 961.624,443.555C961.624,439.191 959.246,436.822 956.221,436.822C953.911,436.822 952.948,438.211 952.479,439.157L952.3,439.157L952.3,436.992L949.266,436.992L949.266,454.992ZM952.292,443.538C952.292,440.998 953.383,439.353 955.369,439.353C957.423,439.353 958.479,441.1 958.479,443.538C958.479,445.992 957.406,447.782 955.369,447.782C953.4,447.782 952.292,446.078 952.292,443.538Z" style="fill-rule:nonzero;"/>
            <rect x="964.258" y="432.629" width="3.085" height="17.455" style="fill-rule:nonzero;"/>
            <path d="M978.857,444.578C978.857,446.572 977.434,447.561 976.07,447.561C974.587,447.561 973.599,446.512 973.599,444.85L973.599,436.992L970.514,436.992L970.514,445.328C970.514,448.472 972.303,450.254 974.877,450.254C976.837,450.254 978.218,449.222 978.815,447.757L978.951,447.757L978.951,450.083L981.942,450.083L981.942,436.992L978.857,436.992L978.857,444.578Z" style="fill-rule:nonzero;"/>
            <path d="M990.806,455.214C994.343,455.214 996.951,453.595 996.951,450.296L996.951,436.992L993.908,436.992L993.908,439.157L993.738,439.157C993.269,438.211 992.289,436.822 989.979,436.822C986.954,436.822 984.576,439.191 984.576,443.495C984.576,447.765 986.954,449.896 989.971,449.896C992.212,449.896 993.261,448.694 993.738,447.731L993.891,447.731L993.891,450.211C993.891,452.086 992.613,452.879 990.857,452.879C988.999,452.879 988.181,452.001 987.806,451.285L985.028,451.958C985.59,453.74 987.474,455.214 990.806,455.214ZM990.832,447.475C988.795,447.475 987.721,445.89 987.721,443.478C987.721,441.1 988.778,439.353 990.832,439.353C992.818,439.353 993.908,440.998 993.908,443.478C993.908,445.975 992.8,447.475 990.832,447.475Z" style="fill-rule:nonzero;"/>
            <path d="M1000.12,450.083L1003.21,450.083L1003.21,436.992L1000.12,436.992L1000.12,450.083ZM1001.67,435.134C1002.65,435.134 1003.45,434.384 1003.45,433.464C1003.45,432.535 1002.65,431.785 1001.67,431.785C1000.68,431.785 999.883,432.535 999.883,433.464C999.883,434.384 1000.68,435.134 1001.67,435.134Z" style="fill-rule:nonzero;"/>
            <path d="M1009.46,442.413C1009.46,440.521 1010.6,439.43 1012.23,439.43C1013.83,439.43 1014.78,440.478 1014.78,442.225L1014.78,450.083L1017.87,450.083L1017.87,441.748C1017.87,438.612 1016.09,436.822 1013.38,436.822C1011.42,436.822 1010.08,437.759 1009.48,439.217L1009.33,439.217L1009.33,436.992L1006.38,436.992L1006.38,450.083L1009.46,450.083L1009.46,442.413Z" style="fill-rule:nonzero;"/>
        </g>
        <g transform="matrix(-0.965926,0.258819,0.258819,0.965926,1357.04,-445.639)">
            <circle cx="809.848" cy="499.006" r="6.275" style="fill:rgb(51,51,51);stroke:rgb(51,51,51);stroke-width:8px;stroke-linejoin:round;stroke-miterlimit:1.5;"/>
        </g>
        <g transform="matrix(-0.965926,0.258819,0.258819,0.965926,1352.05,-437.806)">
            <path d="M803.001,492.731L869.433,449.843" style="fill:none;stroke:rgb(51,51,51);stroke-width:4px;stroke-linejoin:round;stroke-miterlimit:1.5;"/>
        </g>
    </g>
</svg>
