<?xml version="1.0" encoding="UTF-8" standalone="no"?>
<!DOCTYPE svg PUBLIC "-//W3C//DTD SVG 1.1//EN" "http://www.w3.org/Graphics/SVG/1.1/DTD/svg11.dtd">
<svg width="100%" height="100%" viewBox="0 0 666 332" version="1.1" xmlns="http://www.w3.org/2000/svg" xmlns:xlink="http://www.w3.org/1999/xlink" xml:space="preserve" xmlns:serif="http://www.serif.com/" style="fill-rule:evenodd;clip-rule:evenodd;stroke-linecap:round;stroke-miterlimit:1;">
    <g transform="matrix(1,0,0,1,-371.849,-379.227)">
        <g transform="matrix(1,0,0,1,-10.9315,68.7959)">
            <rect x="382.781" y="310.431" width="665.062" height="331.045" style="fill:white;"/>
        </g>
        <g transform="matrix(1,0,0,1,599.151,325.415)">
            <g transform="matrix(0.467062,0,0,0.467062,-178.313,68.9919)">
                <path d="M757.889,102.489C757.889,87.768 745.938,75.817 731.217,75.817L517.843,75.817C503.122,75.817 491.171,87.768 491.171,102.489L491.171,582.383C491.171,597.104 503.122,609.055 517.843,609.055L731.217,609.055C745.938,609.055 757.889,597.104 757.889,582.383L757.889,102.489Z" style="fill:white;stroke:rgb(127,109,242);stroke-width:8.56px;"/>
            </g>
            <g transform="matrix(1.23053,0,0,1,-26.1098,0)">
                <rect x="51.094" y="194.508" width="124.574" height="100.365" style="fill:white;"/>
            </g>
            <g transform="matrix(1.23053,0,0,1,-26.1098,0)">
                <rect x="51.094" y="194.508" width="124.574" height="100.365" style="fill:rgb(127,109,242);fill-opacity:0.2;"/>
            </g>
            <g transform="matrix(0.446401,0,0,0.467062,-167.036,80.7322)">
                <path d="M799.931,265.087C799.931,253.228 789.856,243.599 777.448,243.599L478.021,243.599C465.612,243.599 455.538,253.228 455.538,265.087L455.538,436.996C455.538,448.855 465.612,458.484 478.021,458.484L777.448,458.484C789.856,458.484 799.931,448.855 799.931,436.996L799.931,265.087Z" style="fill:none;stroke:rgb(127,109,242);stroke-width:17.51px;stroke-linejoin:round;stroke-miterlimit:1.5;"/>
            </g>
            <g transform="matrix(0.467062,0,0,0.467062,-177.292,75.6226)">
                <path d="M735.854,109.488C735.854,106.41 733.355,103.911 730.277,103.911L514.41,103.911C511.332,103.911 508.833,106.41 508.833,109.488L508.833,120.643C508.833,123.721 511.332,126.22 514.41,126.22L730.277,126.22C733.355,126.22 735.854,123.721 735.854,120.643L735.854,109.488Z" style="fill:rgb(127,109,242);fill-opacity:0.38;"/>
            </g>
            <g transform="matrix(0.431791,0,0,0.467062,-159.345,92.7402)">
                <path d="M735.854,109.488C735.854,106.41 733.151,103.911 729.822,103.911L514.865,103.911C511.536,103.911 508.833,106.41 508.833,109.488L508.833,120.643C508.833,123.721 511.536,126.22 514.865,126.22L729.822,126.22C733.151,126.22 735.854,123.721 735.854,120.643L735.854,109.488Z" style="fill:rgb(127,109,242);fill-opacity:0.38;"/>
            </g>
            <g transform="matrix(0.467062,0,0,0.467062,-177.292,109.886)">
                <path d="M735.854,109.488C735.854,106.41 733.355,103.911 730.277,103.911L514.41,103.911C511.332,103.911 508.833,106.41 508.833,109.488L508.833,120.643C508.833,123.721 511.332,126.22 514.41,126.22L730.277,126.22C733.355,126.22 735.854,123.721 735.854,120.643L735.854,109.488Z" style="fill:rgb(127,109,242);fill-opacity:0.38;"/>
            </g>
            <g transform="matrix(0.191073,0,0,0.467062,-36.8603,126.426)">
                <path d="M735.854,109.488C735.854,106.41 729.746,103.911 722.221,103.911L522.466,103.911C514.941,103.911 508.833,106.41 508.833,109.488L508.833,120.643C508.833,123.721 514.941,126.22 522.466,126.22L722.221,126.22C729.746,126.22 735.854,123.721 735.854,120.643L735.854,109.488Z" style="fill:rgb(127,109,242);fill-opacity:0.38;"/>
            </g>
            <g transform="matrix(0.467062,0,0,0.467062,-177.292,164.62)">
                <path d="M735.854,109.488C735.854,106.41 733.355,103.911 730.277,103.911L514.41,103.911C511.332,103.911 508.833,106.41 508.833,109.488L508.833,120.643C508.833,123.721 511.332,126.22 514.41,126.22L730.277,126.22C733.355,126.22 735.854,123.721 735.854,120.643L735.854,109.488Z" style="fill:rgb(127,109,242);fill-opacity:0.38;"/>
            </g>
            <g transform="matrix(0.347784,0,0,0.467062,-116.6,181.738)">
                <path d="M735.854,109.488C735.854,106.41 732.498,103.911 728.364,103.911L516.323,103.911C512.189,103.911 508.833,106.41 508.833,109.488L508.833,120.643C508.833,123.721 512.189,126.22 516.323,126.22L728.364,126.22C732.498,126.22 735.854,123.721 735.854,120.643L735.854,109.488Z" style="fill:rgb(127,109,242);fill-opacity:0.38;"/>
            </g>
            <g transform="matrix(0.424639,0,0,0.467062,-155.706,198.884)">
                <path d="M735.854,109.488C735.854,106.41 733.106,103.911 729.72,103.911L514.967,103.911C511.581,103.911 508.833,106.41 508.833,109.488L508.833,120.643C508.833,123.721 511.581,126.22 514.967,126.22L729.72,126.22C733.106,126.22 735.854,123.721 735.854,120.643L735.854,109.488Z" style="fill:rgb(127,109,242);fill-opacity:0.38;"/>
            </g>
            <g transform="matrix(0.191073,0,0,0.467062,-36.8603,215.424)">
                <path d="M735.854,109.488C735.854,106.41 729.746,103.911 722.221,103.911L522.466,103.911C514.941,103.911 508.833,106.41 508.833,109.488L508.833,120.643C508.833,123.721 514.941,126.22 522.466,126.22L722.221,126.22C729.746,126.22 735.854,123.721 735.854,120.643L735.854,109.488Z" style="fill:rgb(127,109,242);fill-opacity:0.38;"/>
            </g>
            <g transform="matrix(0.424639,0,0,0.467062,-155.706,256.792)">
                <path d="M735.854,109.488C735.854,106.41 733.106,103.911 729.72,103.911L514.967,103.911C511.581,103.911 508.833,106.41 508.833,109.488L508.833,120.643C508.833,123.721 511.581,126.22 514.967,126.22L729.72,126.22C733.106,126.22 735.854,123.721 735.854,120.643L735.854,109.488Z" style="fill:rgb(127,109,242);fill-opacity:0.38;"/>
            </g>
            <g transform="matrix(0.119553,0,0,0.467062,-0.468555,273.332)">
                <path d="M735.854,109.488C735.854,106.41 726.091,103.911 714.065,103.911L530.622,103.911C518.596,103.911 508.833,106.41 508.833,109.488L508.833,120.643C508.833,123.721 518.596,126.22 530.622,126.22L714.065,126.22C726.091,126.22 735.854,123.721 735.854,120.643L735.854,109.488Z" style="fill:rgb(127,109,242);fill-opacity:0.38;"/>
            </g>
        </g>
        <g transform="matrix(0.965926,0.258819,-0.258819,0.965926,136.104,-121.502)">
            <circle cx="809.848" cy="499.006" r="6.275" style="fill:rgb(51,51,51);stroke:rgb(51,51,51);stroke-width:8px;stroke-linejoin:round;stroke-miterlimit:1.5;"/>
        </g>
        <g transform="matrix(0.965926,0.258819,-0.258819,0.965926,141.094,-113.669)">
            <path d="M803.001,492.731L869.433,449.843" style="fill:none;stroke:rgb(51,51,51);stroke-width:4px;stroke-linejoin:round;stroke-miterlimit:1.5;"/>
        </g>
        <g transform="matrix(-0.666747,-0.745284,0.745284,-0.666747,818.307,1403.53)">
            <circle cx="809.848" cy="499.006" r="6.275" style="fill:rgb(51,51,51);stroke:rgb(51,51,51);stroke-width:8px;stroke-linejoin:round;stroke-miterlimit:1.5;"/>
        </g>
        <g transform="matrix(-0.666747,-0.745284,0.745284,-0.666747,818.419,1394.24)">
            <path d="M803.001,492.731L869.433,449.843" style="fill:none;stroke:rgb(51,51,51);stroke-width:4px;stroke-linejoin:round;stroke-miterlimit:1.5;"/>
        </g>
        <g transform="matrix(1,0,0,1,-7.03378,99.3533)">
            <path d="M887.903,432.629L884.434,432.629L890.579,450.083L894.482,450.083L900.636,432.629L897.158,432.629L892.624,446.367L892.445,446.367L887.903,432.629Z" style="fill-rule:nonzero;"/>
            <path d="M902.8,450.083L905.886,450.083L905.886,436.992L902.8,436.992L902.8,450.083ZM904.352,435.134C905.332,435.134 906.133,434.384 906.133,433.464C906.133,432.535 905.332,431.785 904.352,431.785C903.363,431.785 902.562,432.535 902.562,433.464C902.562,434.384 903.363,435.134 904.352,435.134Z" style="fill-rule:nonzero;"/>
            <path d="M914.852,450.339C917.903,450.339 919.999,448.847 920.545,446.572L917.664,446.248C917.246,447.356 916.224,447.936 914.894,447.936C912.9,447.936 911.579,446.623 911.553,444.382L920.673,444.382L920.673,443.436C920.673,438.842 917.911,436.822 914.69,436.822C910.94,436.822 908.494,439.575 908.494,443.615C908.494,447.722 910.906,450.339 914.852,450.339ZM911.562,442.302C911.656,440.632 912.891,439.225 914.732,439.225C916.505,439.225 917.698,440.521 917.715,442.302L911.562,442.302Z" style="fill-rule:nonzero;"/>
            <path d="M925.914,450.083L929.136,450.083L931.59,441.237L931.769,441.237L934.224,450.083L937.437,450.083L941.144,436.992L937.991,436.992L935.724,446.146L935.596,446.146L933.244,436.992L930.133,436.992L927.781,446.197L927.661,446.197L925.36,436.992L922.215,436.992L925.914,450.083Z" style="fill-rule:nonzero;"/>
            <path d="M943.309,454.992L946.394,454.992L946.394,448.021L946.522,448.021C947.008,448.975 948.022,450.313 950.272,450.313C953.357,450.313 955.667,447.867 955.667,443.555C955.667,439.191 953.289,436.822 950.264,436.822C947.954,436.822 946.991,438.211 946.522,439.157L946.343,439.157L946.343,436.992L943.309,436.992L943.309,454.992ZM946.335,443.538C946.335,440.998 947.425,439.353 949.411,439.353C951.465,439.353 952.522,441.1 952.522,443.538C952.522,445.992 951.448,447.782 949.411,447.782C947.443,447.782 946.335,446.078 946.335,443.538Z" style="fill-rule:nonzero;"/>
            <path d="M964.011,450.339C967.846,450.339 970.283,447.637 970.283,443.589C970.283,439.532 967.846,436.822 964.011,436.822C960.175,436.822 957.738,439.532 957.738,443.589C957.738,447.637 960.175,450.339 964.011,450.339ZM964.028,447.867C961.906,447.867 960.866,445.975 960.866,443.58C960.866,441.186 961.906,439.268 964.028,439.268C966.116,439.268 967.156,441.186 967.156,443.58C967.156,445.975 966.116,447.867 964.028,447.867Z" style="fill-rule:nonzero;"/>
            <path d="M972.891,450.083L975.977,450.083L975.977,442.387C975.977,440.725 977.229,439.549 978.925,439.549C979.445,439.549 980.093,439.643 980.357,439.728L980.357,436.89C980.076,436.839 979.59,436.805 979.249,436.805C977.749,436.805 976.496,437.657 976.019,439.174L975.883,439.174L975.883,436.992L972.891,436.992L972.891,450.083Z" style="fill-rule:nonzero;"/>
            <path d="M989.656,436.992L987.073,436.992L987.073,433.856L983.988,433.856L983.988,436.992L982.13,436.992L982.13,439.379L983.988,439.379L983.988,446.657C983.971,449.12 985.761,450.33 988.079,450.262C988.957,450.237 989.562,450.066 989.894,449.955L989.374,447.544C989.204,447.586 988.854,447.663 988.471,447.663C987.695,447.663 987.073,447.39 987.073,446.146L987.073,439.379L989.656,439.379L989.656,436.992Z" style="fill-rule:nonzero;"/>
        </g>
        <g transform="matrix(1,0,0,1,-441.812,1.45026)">
            <path d="M891.482,450.083C896.8,450.083 899.954,446.794 899.954,441.339C899.954,435.901 896.8,432.629 891.602,432.629L885.568,432.629L885.568,450.083L891.482,450.083ZM888.729,447.347L888.729,435.365L891.423,435.365C894.968,435.365 896.817,437.342 896.817,441.339C896.817,445.353 894.968,447.347 891.329,447.347L888.729,447.347Z" style="fill-rule:nonzero;"/>
            <path d="M908.528,450.339C912.363,450.339 914.8,447.637 914.8,443.589C914.8,439.532 912.363,436.822 908.528,436.822C904.693,436.822 902.255,439.532 902.255,443.589C902.255,447.637 904.693,450.339 908.528,450.339ZM908.545,447.867C906.423,447.867 905.383,445.975 905.383,443.58C905.383,441.186 906.423,439.268 908.545,439.268C910.633,439.268 911.673,441.186 911.673,443.58C911.673,445.975 910.633,447.867 908.545,447.867Z" style="fill-rule:nonzero;"/>
            <path d="M923.119,450.339C926.408,450.339 928.505,448.387 928.727,445.609L925.778,445.609C925.514,447.015 924.499,447.825 923.144,447.825C921.218,447.825 919.974,446.214 919.974,443.538C919.974,440.896 921.244,439.311 923.144,439.311C924.627,439.311 925.539,440.265 925.778,441.526L928.727,441.526C928.514,438.688 926.298,436.822 923.102,436.822C919.266,436.822 916.846,439.592 916.846,443.589C916.846,447.552 919.207,450.339 923.119,450.339Z" style="fill-rule:nonzero;"/>
            <path d="M939.61,444.578C939.61,446.572 938.187,447.561 936.823,447.561C935.34,447.561 934.352,446.512 934.352,444.85L934.352,436.992L931.266,436.992L931.266,445.328C931.266,448.472 933.056,450.254 935.63,450.254C937.59,450.254 938.971,449.222 939.567,447.757L939.704,447.757L939.704,450.083L942.695,450.083L942.695,436.992L939.61,436.992L939.61,444.578Z" style="fill-rule:nonzero;"/>
            <path d="M945.866,450.083L948.951,450.083L948.951,442.123C948.951,440.512 950.025,439.421 951.354,439.421C952.658,439.421 953.553,440.299 953.553,441.646L953.553,450.083L956.579,450.083L956.579,441.919C956.579,440.444 957.457,439.421 958.948,439.421C960.192,439.421 961.181,440.154 961.181,441.774L961.181,450.083L964.275,450.083L964.275,441.296C964.275,438.373 962.587,436.822 960.184,436.822C958.283,436.822 956.835,437.759 956.255,439.217L956.119,439.217C955.616,437.734 954.346,436.822 952.582,436.822C950.826,436.822 949.514,437.725 948.968,439.217L948.815,439.217L948.815,436.992L945.866,436.992L945.866,450.083Z" style="fill-rule:nonzero;"/>
            <path d="M973.207,450.339C976.258,450.339 978.354,448.847 978.9,446.572L976.019,446.248C975.602,447.356 974.579,447.936 973.249,447.936C971.255,447.936 969.934,446.623 969.908,444.382L979.028,444.382L979.028,443.436C979.028,438.842 976.266,436.822 973.045,436.822C969.295,436.822 966.849,439.575 966.849,443.615C966.849,447.722 969.261,450.339 973.207,450.339ZM969.917,442.302C970.011,440.632 971.246,439.225 973.087,439.225C974.86,439.225 976.053,440.521 976.07,442.302L969.917,442.302Z" style="fill-rule:nonzero;"/>
            <path d="M984.721,442.413C984.721,440.521 985.863,439.43 987.491,439.43C989.085,439.43 990.039,440.478 990.039,442.225L990.039,450.083L993.124,450.083L993.124,441.748C993.133,438.612 991.343,436.822 988.641,436.822C986.681,436.822 985.335,437.759 984.738,439.217L984.585,439.217L984.585,436.992L981.636,436.992L981.636,450.083L984.721,450.083L984.721,442.413Z" style="fill-rule:nonzero;"/>
            <path d="M1002.81,436.992L1000.22,436.992L1000.22,433.856L997.139,433.856L997.139,436.992L995.281,436.992L995.281,439.379L997.139,439.379L997.139,446.657C997.121,449.12 998.911,450.33 1001.23,450.262C1002.11,450.237 1002.71,450.066 1003.05,449.955L1002.52,447.544C1002.35,447.586 1002,447.663 1001.62,447.663C1000.85,447.663 1000.22,447.39 1000.22,446.146L1000.22,439.379L1002.81,439.379L1002.81,436.992Z" style="fill-rule:nonzero;"/>
        </g>
    </g>
</svg>
